<svg id="Layer_1" data-name="Layer 1" xmlns="http://www.w3.org/2000/svg" xmlns:xlink="http://www.w3.org/1999/xlink" viewBox="0 0 195.36 86.2"><defs><style>.cls-1{fill:url(#linear-gradient);}.cls-2{fill:url(#linear-gradient-2);}.cls-3{fill:url(#linear-gradient-3);}.cls-4{fill:url(#linear-gradient-4);}.cls-5{fill:url(#linear-gradient-5);}.cls-6{fill:url(#linear-gradient-6);}</style><linearGradient id="linear-gradient" x1="810.04" y1="517.01" x2="810.04" y2="471.4" gradientUnits="userSpaceOnUse"><stop offset="0" stop-color="#9453a0"/><stop offset="1" stop-color="#466bb2"/></linearGradient><linearGradient id="linear-gradient-2" x1="684.16" y1="538.77" x2="684.16" y2="515.02" xlink:href="#linear-gradient"/><linearGradient id="linear-gradient-3" x1="752.4" y1="538.77" x2="752.4" y2="508" xlink:href="#linear-gradient"/><linearGradient id="linear-gradient-4" x1="820.64" y1="538.77" x2="820.64" y2="515.02" xlink:href="#linear-gradient"/><linearGradient id="linear-gradient-5" x1="694.77" y1="517.01" x2="694.77" y2="471.4" xlink:href="#linear-gradient"/><linearGradient id="linear-gradient-6" x1="752.4" y1="511.08" x2="752.4" y2="452.57" xlink:href="#linear-gradient"/></defs><title>fb_group</title><path class="cls-1" d="M810,517c12.2,0,22.13-10.23,22.13-22.81s-9.93-22.8-22.13-22.8-22.12,10.23-22.12,22.8S797.85,517,810,517Zm0-41.22c9.78,0,17.73,8.26,17.73,18.41s-7.95,18.41-17.73,18.41-17.72-8.26-17.72-18.41S800.27,475.79,810,475.79Z" transform="translate(-654.72 -452.57)"/><path class="cls-2" d="M709.7,520.52l3.9-3.19a47.34,47.34,0,0,0-5.88-2l-.82-.22-.18-.05-.15.11-.7.5a18.93,18.93,0,0,1-22.21,0l-.7-.5-.15-.11-.18.05-.82.22c-13.19,3.58-23.3,12.31-27,23.35l0,.13h4.69c3.54-8.86,11.75-15.76,22.58-19a23.32,23.32,0,0,0,25.55,0C708.27,520,709,520.26,709.7,520.52Z" transform="translate(-654.72 -452.57)"/><path class="cls-3" d="M792.1,520.52s-3.51-2.9-3.9-3.18a57.35,57.35,0,0,0-19-9.05L768.1,508l-.91.65a25.36,25.36,0,0,1-2.87,1.79,25.18,25.18,0,0,1-23.84,0,25.48,25.48,0,0,1-2.88-1.79l-.91-.65-1.08.29a57.28,57.28,0,0,0-19,9l-3.9,3.19a42.66,42.66,0,0,0-12.14,18.21l.09,0h4.9c4.54-11.92,15.69-21.39,30.25-25.65a29.91,29.91,0,0,0,33.2,0c14.57,4.26,25.72,13.73,30.26,25.65h4.9l.09,0A42.78,42.78,0,0,0,792.1,520.52Z" transform="translate(-654.72 -452.57)"/><path class="cls-4" d="M850,538.64c-3.74-11-13.85-19.77-27-23.35l-.82-.22L822,515l-.15.11-.7.5a18.93,18.93,0,0,1-22.21,0l-.7-.5-.15-.11-.18.05-.82.22a45.93,45.93,0,0,0-5.89,2.05l3.9,3.18c.71-.25,1.43-.49,2.17-.71a23.32,23.32,0,0,0,25.55,0c10.83,3.2,19,10.1,22.58,19h4.69Z" transform="translate(-654.72 -452.57)"/><path class="cls-5" d="M694.77,517c12.19,0,22.12-10.23,22.12-22.81s-9.93-22.8-22.12-22.8-22.13,10.23-22.13,22.8S682.57,517,694.77,517Zm0-41.22c9.77,0,17.72,8.26,17.72,18.41s-8,18.41-17.72,18.41S677,504.35,677,494.2,685,475.79,694.77,475.79Z" transform="translate(-654.72 -452.57)"/><path class="cls-6" d="M752.4,511.08c15.67,0,28.37-13.1,28.37-29.25s-12.7-29.26-28.37-29.26S724,465.67,724,481.83,736.74,511.08,752.4,511.08Zm0-53.8c13.05,0,23.66,11,23.66,24.55s-10.61,24.54-23.66,24.54-23.65-11-23.65-24.54S739.36,457.28,752.4,457.28Z" transform="translate(-654.72 -452.57)"/></svg>